<?xml version="1.0" encoding="utf-8"?>
<!-- Generator: Adobe Illustrator 27.2.0, SVG Export Plug-In . SVG Version: 6.00 Build 0)  -->
<svg version="1.1" id="Layer_1" xmlns="http://www.w3.org/2000/svg" xmlns:xlink="http://www.w3.org/1999/xlink" x="0px" y="0px"
	 viewBox="0 0 32 32" style="enable-background:new 0 0 32 32;" xml:space="preserve">
<style type="text/css">
	.st0{fill:url(#SVGID_1_);}
	.st1{fill:url(#SVGID_00000163044950857382291090000004439821947285140413_);}
	.st2{fill:url(#SVGID_00000005229493047874929550000003941751762387913396_);}
	.st3{fill:url(#SVGID_00000175319984232191718000000012242906711554457261_);}
	.st4{fill:url(#SVGID_00000071530476414627014150000011126204645850601399_);}
	.st5{fill:url(#SVGID_00000169522535829579488520000015198414701620146878_);}
	.st6{fill:url(#SVGID_00000121273330219989466740000015353425563347788472_);}
	.st7{fill:url(#SVGID_00000144339394861833943950000013456537359923784358_);}
	.st8{fill:url(#SVGID_00000155842291500458028650000011242720552870331320_);}
	.st9{fill:url(#SVGID_00000129191328135213767160000005796532913635950478_);}
	.st10{fill:url(#SVGID_00000075873844476684560970000010082399251107861915_);}
	.st11{fill:url(#SVGID_00000055684640137734235390000000661964108188482189_);}
	.st12{fill:url(#SVGID_00000109730888462781567950000000242143755389125517_);}
	.st13{fill:url(#SVGID_00000105392957766625086580000011039113739421964697_);}
	.st14{fill:url(#SVGID_00000082339755518732083170000013155470618959947189_);}
	.st15{fill:url(#SVGID_00000058582010327886900850000009145268337519131573_);}
	.st16{fill:url(#SVGID_00000052086514651867897940000017161506675527434396_);}
	.st17{fill:url(#SVGID_00000157292450278735652850000004388201276088608398_);}
	.st18{fill:url(#SVGID_00000006684579705362827970000010194837723738689696_);}
	.st19{fill:url(#SVGID_00000047746386225250741830000005284916973799224462_);}
	.st20{fill:url(#SVGID_00000113313567569243249390000012233283867094181817_);}
	.st21{fill:url(#SVGID_00000141421436200874638130000008305337652633389196_);}
	.st22{fill-rule:evenodd;clip-rule:evenodd;fill:url(#SVGID_00000029030487917907565590000011901843828715969462_);}
	.st23{fill-rule:evenodd;clip-rule:evenodd;fill:url(#SVGID_00000101086803291484229820000007323272758178420626_);}
	.st24{fill-rule:evenodd;clip-rule:evenodd;fill:url(#SVGID_00000000218662411814607080000013674679458482417853_);}
	.st25{fill-rule:evenodd;clip-rule:evenodd;fill:url(#SVGID_00000131362280149793194670000007250744416762392206_);}
	.st26{fill-rule:evenodd;clip-rule:evenodd;fill:url(#SVGID_00000183230818548098238070000013459449143978011835_);}
	.st27{fill-rule:evenodd;clip-rule:evenodd;fill:url(#SVGID_00000162310729370565547070000004431126329270584243_);}
	.st28{fill-rule:evenodd;clip-rule:evenodd;fill:url(#SVGID_00000070119944867170414000000003172613887714861700_);}
	.st29{fill-rule:evenodd;clip-rule:evenodd;fill:url(#SVGID_00000017495137118223031560000011387165396702411176_);}
	.st30{fill-rule:evenodd;clip-rule:evenodd;fill:url(#SVGID_00000001652453759744960940000014613165950073881764_);}
	.st31{fill-rule:evenodd;clip-rule:evenodd;fill:url(#SVGID_00000154385107723390560830000013999861572208663217_);}
	.st32{fill-rule:evenodd;clip-rule:evenodd;fill:url(#SVGID_00000114041343454611362930000011787614846475456684_);}
	.st33{fill-rule:evenodd;clip-rule:evenodd;fill:url(#SVGID_00000075139924048338945030000012514534850327849653_);}
	.st34{fill:url(#SVGID_00000164502301290013439620000007532259339134250640_);}
	.st35{fill:url(#SVGID_00000080205439037689364440000013372143408110027705_);}
	.st36{fill:#44B6FF;}
	.st37{fill:url(#SVGID_00000060734482465516708270000006922667351940414399_);}
	.st38{fill:none;stroke:url(#SVGID_00000181087948000269654620000000554407091800090558_);stroke-width:0.3;stroke-linecap:round;}
	.st39{fill:none;stroke:url(#SVGID_00000099627024101040534910000012278839466906573217_);stroke-width:0.3;stroke-linecap:round;}
</style>
<g>
	
		<linearGradient id="SVGID_1_" gradientUnits="userSpaceOnUse" x1="5.0249419" y1="14.9408264" x2="13.0874014" y2="7.9408269" gradientTransform="matrix(1 0 0 -1 0 34)">
		<stop  offset="0" style="stop-color:#B3843C"/>
		<stop  offset="1" style="stop-color:#F17A61"/>
	</linearGradient>
	<path class="st0" d="M18.6865005,24.8554993c0.4391994-0.1914997,0.6218987-0.4717999,0.7538986-0.6367989
		c1.1853008-1.4805012-1.3436985-5.875-4.9543991-8.4177999c-3.8268003-3.3322001-8.04037-4.4676008-9.2257004-2.9871006
		c-0.2034402,0.2540998-0.3628802,0.6001997-0.4292803,0.9909L2.5810101,26.75
		c-0.07812,1.5781002,0.5250499,2.1777992,0.82689,2.4708004c0.5469699,0.5307999,1.6106198,0.9822998,2.71999,0.5916996
		C10.4090996,28.1639996,14.4198999,26.7154999,18.6865005,24.8554993z"/>
</g>
<linearGradient id="SVGID_00000040537341208644019640000007096534658715340700_" gradientUnits="userSpaceOnUse" x1="3.4461129" y1="13.5004654" x2="5.8057733" y2="13.021265" gradientTransform="matrix(1 0 0 -1 0 34)">
	<stop  offset="0" style="stop-color:#B1853B"/>
	<stop  offset="1" style="stop-color:#B1853B;stop-opacity:0"/>
</linearGradient>
<path style="fill:url(#SVGID_00000040537341208644019640000007096534658715340700_);" d="M18.6865005,24.8554993
	c0.4391994-0.1914997,0.6218987-0.4717999,0.7538986-0.6367989c1.1853008-1.4805012-1.3436985-5.875-4.9543991-8.4177999
	c-3.8268003-3.3322001-8.04037-4.4676008-9.2257004-2.9871006c-0.2034402,0.2540998-0.3628802,0.6001997-0.4292803,0.9909
	L2.5810101,26.75c-0.07812,1.5781002,0.5250499,2.1777992,0.82689,2.4708004
	c0.5469699,0.5307999,1.6106198,0.9822998,2.71999,0.5916996C10.4090996,28.1639996,14.4198999,26.7154999,18.6865005,24.8554993z"
	/>
<linearGradient id="SVGID_00000007416673177237067270000007781561911147058102_" gradientUnits="userSpaceOnUse" x1="18.9317875" y1="15.0512276" x2="14.9488878" y2="14.394928" gradientTransform="matrix(1 0 0 -1 0 34)">
	<stop  offset="0" style="stop-color:#F9C26C"/>
	<stop  offset="1" style="stop-color:#F9C26C;stop-opacity:0"/>
</linearGradient>
<path style="fill:url(#SVGID_00000007416673177237067270000007781561911147058102_);" d="M18.6865005,24.8554993
	c0.4391994-0.1914997,0.6218987-0.4717999,0.7538986-0.6367989c1.1853008-1.4805012-1.3436985-5.875-4.9543991-8.4177999
	c-3.8268003-3.3322001-8.04037-4.4676008-9.2257004-2.9871006c-0.2034402,0.2540998-0.3628802,0.6001997-0.4292803,0.9909
	L2.5810101,26.75c-0.07812,1.5781002,0.5250499,2.1777992,0.82689,2.4708004
	c0.5469699,0.5307999,1.6106198,0.9822998,2.71999,0.5916996C10.4090996,28.1639996,14.4198999,26.7154999,18.6865005,24.8554993z"
	/>
<linearGradient id="SVGID_00000011030839372183326820000002382061921688402051_" gradientUnits="userSpaceOnUse" x1="14.7181654" y1="19.5108089" x2="12.1598053" y2="15.1670084" gradientTransform="matrix(1 0 0 -1 0 34)">
	<stop  offset="0" style="stop-color:#E6BF69"/>
	<stop  offset="1" style="stop-color:#E6BF69;stop-opacity:0"/>
</linearGradient>
<path style="fill:url(#SVGID_00000011030839372183326820000002382061921688402051_);" d="M18.6865005,24.8554993
	c0.4391994-0.1914997,0.6218987-0.4717999,0.7538986-0.6367989c1.1853008-1.4805012-1.3436985-5.875-4.9543991-8.4177999
	c-3.8268003-3.3322001-8.04037-4.4676008-9.2257004-2.9871006c-0.2034402,0.2540998-0.3628802,0.6001997-0.4292803,0.9909
	L2.5810101,26.75c-0.07812,1.5781002,0.5250499,2.1777992,0.82689,2.4708004
	c0.5469699,0.5307999,1.6106198,0.9822998,2.71999,0.5916996C10.4090996,28.1639996,14.4198999,26.7154999,18.6865005,24.8554993z"
	/>
<g>
	
		<linearGradient id="SVGID_00000180347229417231531490000012746579548932257673_" gradientUnits="userSpaceOnUse" x1="209.0284271" y1="432.7157288" x2="210.0574341" y2="439.5962219" gradientTransform="matrix(0.7688909 0.63938 0.63938 -0.7688909 -427.4352112 219.7780457)">
		<stop  offset="0" style="stop-color:#FCCB57"/>
		<stop  offset="1" style="stop-color:#F5BD55"/>
	</linearGradient>
	<path style="fill:url(#SVGID_00000180347229417231531490000012746579548932257673_);" d="M14.5131531,15.9601927
		c3.7251797,3.0977163,5.7533665,6.801446,4.5300808,8.2725172c-1.2232857,1.4710693-5.234807,0.1524124-8.9599867-2.945303
		s-5.753366-6.801446-4.5300808-8.2725163S10.7879734,12.8624773,14.5131531,15.9601927z"/>
</g>
<g>
	
		<linearGradient id="SVGID_00000003783480828117348250000008231059523897426597_" gradientUnits="userSpaceOnUse" x1="202.3442688" y1="436.6213684" x2="218.8241882" y2="435.8158569" gradientTransform="matrix(0.7688909 0.63938 0.63938 -0.7688909 -427.655365 219.5131073)">
		<stop  offset="0" style="stop-color:#F3AB2C"/>
		<stop  offset="1" style="stop-color:#B57F1E"/>
	</linearGradient>
	<path style="fill:url(#SVGID_00000003783480828117348250000008231059523897426597_);" d="M14.418622,15.9452057
		c3.4524755,2.870945,5.4167089,6.2019005,4.3872366,7.4398994c-1.0294704,1.237999-4.6628065-0.0857677-8.1152821-2.9567127
		S5.2738676,14.226491,6.3033395,12.988493S10.9661465,13.0742607,14.418622,15.9452057z"/>
	
		<radialGradient id="SVGID_00000086680623427830018850000001489607357895591609_" cx="-526.5281372" cy="174.07547" r="1" gradientTransform="matrix(2.2812343 -6.0625057 -1.6980351 -0.6389463 1504.6293945 -3063.4958496)" gradientUnits="userSpaceOnUse">
		<stop  offset="0.423414" style="stop-color:#CA851E"/>
		<stop  offset="1" style="stop-color:#CA851E;stop-opacity:0"/>
	</radialGradient>
	<path style="fill:url(#SVGID_00000086680623427830018850000001489607357895591609_);" d="M14.418622,15.9452057
		c3.4524755,2.870945,5.4167089,6.2019005,4.3872366,7.4398994c-1.0294704,1.237999-4.6628065-0.0857677-8.1152821-2.9567127
		S5.2738676,14.226491,6.3033395,12.988493S10.9661465,13.0742607,14.418622,15.9452057z"/>
	
		<radialGradient id="SVGID_00000023963858628569752520000005373357625513308822_" cx="-461.8134766" cy="341.5045471" r="1" gradientTransform="matrix(5.437501 -3.5787842 -2.0957708 -3.1842537 3239.8918457 -543.5280151)" gradientUnits="userSpaceOnUse">
		<stop  offset="0" style="stop-color:#BC7F28"/>
		<stop  offset="1" style="stop-color:#BC7F28;stop-opacity:0"/>
	</radialGradient>
	<path style="fill:url(#SVGID_00000023963858628569752520000005373357625513308822_);" d="M14.418622,15.9452057
		c3.4524755,2.870945,5.4167089,6.2019005,4.3872366,7.4398994c-1.0294704,1.237999-4.6628065-0.0857677-8.1152821-2.9567127
		S5.2738676,14.226491,6.3033395,12.988493S10.9661465,13.0742607,14.418622,15.9452057z"/>
</g>
<radialGradient id="SVGID_00000016037297469556657430000010627812617861602493_" cx="-508.3018494" cy="911.6858521" r="1" gradientTransform="matrix(-1.2968789 1.14062 1.14062 1.2968789 -1683.605835 -586.8950806)" gradientUnits="userSpaceOnUse">
	<stop  offset="0" style="stop-color:#5AC0FF"/>
	<stop  offset="1" style="stop-color:#3279B6"/>
</radialGradient>
<circle style="fill:url(#SVGID_00000016037297469556657430000010627812617861602493_);" cx="14.9559002" cy="16" r="1.2031195"/>
<radialGradient id="SVGID_00000152947345759887890930000016581431678575629717_" cx="-649.7598877" cy="842.4993286" r="1" gradientTransform="matrix(-1.6303208 0.5917456 0.6486277 1.7870371 -1590.5928955 -1105.2508545)" gradientUnits="userSpaceOnUse">
	<stop  offset="0.534713" style="stop-color:#3A619E;stop-opacity:0"/>
	<stop  offset="1" style="stop-color:#3A619E"/>
</radialGradient>
<circle style="fill:url(#SVGID_00000152947345759887890930000016581431678575629717_);" cx="14.9559002" cy="16" r="1.2031195"/>
<radialGradient id="SVGID_00000116217023411955719480000008951531713192557185_" cx="-480.4016724" cy="862.4035034" r="1" gradientTransform="matrix(-1.3877666 1.4088039 1.4088039 1.3877666 -1856.1147461 -497.6252136)" gradientUnits="userSpaceOnUse">
	<stop  offset="0" style="stop-color:#FDD46C"/>
	<stop  offset="1" style="stop-color:#F09C53"/>
</radialGradient>
<circle style="fill:url(#SVGID_00000116217023411955719480000008951531713192557185_);" cx="24.8309994" cy="22.9062004" r="1.2031193"/>
<radialGradient id="SVGID_00000152228593525393344380000017086401948757757101_" cx="-287.1314087" cy="805.5042725" r="1" gradientTransform="matrix(-0.3679549 1.9239606 1.9239606 0.3679549 -1630.3548584 278.3329468)" gradientUnits="userSpaceOnUse">
	<stop  offset="0.792052" style="stop-color:#E76260;stop-opacity:0"/>
	<stop  offset="0.9642509" style="stop-color:#E76260"/>
</radialGradient>
<circle style="fill:url(#SVGID_00000152228593525393344380000017086401948757757101_);" cx="24.8309994" cy="22.9062004" r="1.2031193"/>
<radialGradient id="SVGID_00000118393280302245163890000007403282061703605435_" cx="-819.0994263" cy="580.5751343" r="1" gradientTransform="matrix(-1.6741221 -1.0641526 -1.2531853 1.9715079 -618.2991943 -1993.1505127)" gradientUnits="userSpaceOnUse">
	<stop  offset="0.482355" style="stop-color:#AA885A;stop-opacity:0"/>
	<stop  offset="0.90682" style="stop-color:#AA885A"/>
</radialGradient>
<circle style="fill:url(#SVGID_00000118393280302245163890000007403282061703605435_);" cx="24.8309994" cy="22.9062004" r="1.2031193"/>
<radialGradient id="SVGID_00000054946776628374424270000002110468883325668023_" cx="-467.8839722" cy="848.2209473" r="1" gradientTransform="matrix(-1.3887985 1.5216221 1.5216221 1.3887985 -1915.7834473 -459.5178833)" gradientUnits="userSpaceOnUse">
	<stop  offset="0" style="stop-color:#FF46AA"/>
	<stop  offset="1" style="stop-color:#E3189D"/>
</radialGradient>
<circle style="fill:url(#SVGID_00000054946776628374424270000002110468883325668023_);" cx="23.8232002" cy="7.0156202" r="1.2031198"/>
<radialGradient id="SVGID_00000098218432905624020140000003336170468406223549_" cx="-769.3622437" cy="685.9246216" r="1" gradientTransform="matrix(-1.8593758 -0.2187557 -0.2927636 2.4884272 -1205.3887939 -1867.9415283)" gradientUnits="userSpaceOnUse">
	<stop  offset="0.522105" style="stop-color:#B63173;stop-opacity:0"/>
	<stop  offset="1" style="stop-color:#B63173"/>
</radialGradient>
<circle style="fill:url(#SVGID_00000098218432905624020140000003336170468406223549_);" cx="23.8232002" cy="7.0156202" r="1.2031198"/>
<radialGradient id="SVGID_00000067196119344616759810000006920368338956988078_" cx="-512.5854492" cy="886.8115845" r="1" gradientTransform="matrix(-1.4015875 1.1939414 1.1939414 1.4015875 -1766.4552002 -628.0614624)" gradientUnits="userSpaceOnUse">
	<stop  offset="0" style="stop-color:#FFF46F"/>
	<stop  offset="1" style="stop-color:#EFB93C"/>
</radialGradient>
<circle style="fill:url(#SVGID_00000067196119344616759810000006920368338956988078_);" cx="9.99084" cy="3.3671899" r="1.20312"/>
<radialGradient id="SVGID_00000152261165411732989110000016335644369783935134_" cx="-741.7024536" cy="775.0159302" r="1" gradientTransform="matrix(-1.9140004 -0.0494848 -0.0471156 1.8223611 -1372.5876465 -1445.8895264)" gradientUnits="userSpaceOnUse">
	<stop  offset="0.558644" style="stop-color:#AA904B;stop-opacity:0"/>
	<stop  offset="0.9436319" style="stop-color:#AA904B"/>
</radialGradient>
<circle style="fill:url(#SVGID_00000152261165411732989110000016335644369783935134_);" cx="9.99084" cy="3.3671899" r="1.20312"/>
<radialGradient id="SVGID_00000127748506416232968700000015876070038142970300_" cx="-302.9434204" cy="797.8872681" r="1" gradientTransform="matrix(-0.4374963 1.9999983 1.9999983 0.4374963 -1718.0101318 259.5010986)" gradientUnits="userSpaceOnUse">
	<stop  offset="0.771901" style="stop-color:#C47072;stop-opacity:0"/>
	<stop  offset="1" style="stop-color:#C47072"/>
</radialGradient>
<circle style="fill:url(#SVGID_00000127748506416232968700000015876070038142970300_);" cx="9.99084" cy="3.3671899" r="1.20312"/>
<radialGradient id="SVGID_00000163768994297836338250000007340900921015973803_" cx="-467.8839722" cy="848.2209473" r="1" gradientTransform="matrix(-1.3887985 1.5216221 1.5216221 1.3887985 -1934.6783447 -458.4241333)" gradientUnits="userSpaceOnUse">
	<stop  offset="0" style="stop-color:#FF46AA"/>
	<stop  offset="1" style="stop-color:#E3189D"/>
</radialGradient>
<circle style="fill:url(#SVGID_00000163768994297836338250000007340900921015973803_);" cx="4.92834" cy="8.1093798" r="1.2031202"/>
<radialGradient id="SVGID_00000081648741804802268940000001125987667007964821_" cx="-769.3622437" cy="685.9246216" r="1" gradientTransform="matrix(-1.8593758 -0.2187557 -0.2927636 2.4884272 -1224.2835693 -1866.8477783)" gradientUnits="userSpaceOnUse">
	<stop  offset="0.522105" style="stop-color:#B63173;stop-opacity:0"/>
	<stop  offset="1" style="stop-color:#B63173"/>
</radialGradient>
<circle style="fill:url(#SVGID_00000081648741804802268940000001125987667007964821_);" cx="4.92834" cy="8.1093798" r="1.2031202"/>
<radialGradient id="SVGID_00000158015637866404003450000003035226657547321255_" cx="-477.9734192" cy="590.4633789" r="1" gradientTransform="matrix(-2.9062443 3.0937529 6.7735586 6.3630214 -5377.4243164 -2253.3212891)" gradientUnits="userSpaceOnUse">
	<stop  offset="0" style="stop-color:#3365FF"/>
	<stop  offset="1" style="stop-color:#356DB9"/>
</radialGradient>
<path style="fill:url(#SVGID_00000158015637866404003450000003035226657547321255_);" d="M15.9525995,26.0091991
	c-2.6059999-0.1810989-4.4337997-0.9609985-7.3950691-3.4076996c-2.5474105-2.104599-3.8121405-3.9717999-4.2342606-5.8757992
	l-0.4890399,2.8136997c0.1998701,1.1012001,1.0592399,2.6403008,2.7623701,4.1793003
	c2.2274899,2.0130005,4.4452996,3.4375,6.6385999,3.3750992C14.1378002,26.7413006,15.0417995,26.3819008,15.9525995,26.0091991z"/>
<radialGradient id="SVGID_00000022520971702321728810000011661406410508460733_" cx="-467.5300903" cy="619.8769531" r="1" gradientTransform="matrix(-1.7395314 1.9594187 4.9565063 4.4002843 -3878.2983398 -1783.5322266)" gradientUnits="userSpaceOnUse">
	<stop  offset="0" style="stop-color:#3365FF"/>
	<stop  offset="1" style="stop-color:#356DB9"/>
</radialGradient>
<path style="fill:url(#SVGID_00000022520971702321728810000011661406410508460733_);" d="M10.4568996,28.1629009
	C9.2044697,28.2327003,7.5106602,27.2108994,5.7528501,25.75c-1.5-1.2968998-2.2399001-2.7057991-2.3956301-3.4661007
	L2.8606,25.1411991c0.1228399,0.4830017,0.4969499,1.1396008,1.5797501,2.2494011
	c1.2107902,1.2411003,2.42839,1.723999,3.1514602,1.8614006c0.5130701-0.1956005,1.0230398-0.3892002,1.5308599-0.5820007
	C9.5688896,28.5006008,10.0134001,28.3318005,10.4568996,28.1629009z"/>
<g>
	
		<radialGradient id="SVGID_00000098905471921299722170000004292613051702856377_" cx="-570.0014038" cy="872.241394" r="1" gradientTransform="matrix(-4.2187614 0.8749686 0.3264312 1.5739256 -2661.8925781 -862.2189941)" gradientUnits="userSpaceOnUse">
		<stop  offset="0" style="stop-color:#FF3BA9"/>
		<stop  offset="1" style="stop-color:#F422A7"/>
	</radialGradient>
	<path style="fill-rule:evenodd;clip-rule:evenodd;fill:url(#SVGID_00000098905471921299722170000004292613051702856377_);" d="
		M27.9030991,13.1086998c-3.5977993-0.7028999-5.7237988,0.9454002-6.3976994,1.6845999
		c-0.3906994,0.4286003-1.0548,0.4593-1.4832993,0.0686007c-0.4286003-0.3907003-0.459301-1.0548-0.0685997-1.4833002
		c1.0447998-1.1462002,3.8719997-3.2061996,8.3522987-2.3310003c0.5691013,0.1112003,0.9404011,0.6627007,0.8292007,1.2319002
		C29.0237999,12.8486004,28.4722996,13.2199001,27.9030991,13.1086998z"/>
	
		<radialGradient id="SVGID_00000120556092147575905190000008352889402666281871_" cx="-635.3933105" cy="505.5223694" r="1" gradientTransform="matrix(-2.6954401 -3.5312333 -6.2933698 4.8038173 1493.1916504 -4656.8310547)" gradientUnits="userSpaceOnUse">
		<stop  offset="0.752144" style="stop-color:#B8306F;stop-opacity:0"/>
		<stop  offset="1" style="stop-color:#B8306F"/>
	</radialGradient>
	<path style="fill-rule:evenodd;clip-rule:evenodd;fill:url(#SVGID_00000120556092147575905190000008352889402666281871_);" d="
		M27.9030991,13.1086998c-3.5977993-0.7028999-5.7237988,0.9454002-6.3976994,1.6845999
		c-0.3906994,0.4286003-1.0548,0.4593-1.4832993,0.0686007c-0.4286003-0.3907003-0.459301-1.0548-0.0685997-1.4833002
		c1.0447998-1.1462002,3.8719997-3.2061996,8.3522987-2.3310003c0.5691013,0.1112003,0.9404011,0.6627007,0.8292007,1.2319002
		C29.0237999,12.8486004,28.4722996,13.2199001,27.9030991,13.1086998z"/>
</g>
<linearGradient id="SVGID_00000131341023455374426290000014064007575080005781_" gradientUnits="userSpaceOnUse" x1="18.9971485" y1="31.9459438" x2="14.5152493" y2="21.2042828" gradientTransform="matrix(1 0 0 -1 0 34)">
	<stop  offset="0" style="stop-color:#20B2EE"/>
	<stop  offset="1" style="stop-color:#2689DA"/>
</linearGradient>
<path style="fill-rule:evenodd;clip-rule:evenodd;fill:url(#SVGID_00000131341023455374426290000014064007575080005781_);" d="
	M19.1040001,2.0822899c0.5240993,0.0245101,0.9291,0.46924,0.9046001,0.99334
	c-0.0337009,0.72158-0.1651001,1.92365-0.4785004,3.20766c-0.2619991,1.0732503-0.6653996,2.2636404-1.286499,3.2842102
	c0.1501999,0.7961998,0.1541996,1.7356997-0.0107002,2.8039999c-0.0799999,0.5185003-0.5652008,0.8739996-1.0838013,0.7939997
	c-0.5184994-0.0801001-0.8739986-0.5653-0.7939987-1.0837994c0.0368996-0.2391005,0.0630989-0.4629002,0.0798988-0.6724005
	c-0.1843987,0.0962-0.3731995,0.1716003-0.565999,0.2254c-0.7531004,0.2104006-1.4754,0.0646-2.0404005-0.3118
	c-1.0734997-0.7150002-1.5684004-2.2798195-0.7375002-3.5590897C13.8815002,6.5468402,15.5288,6.21596,16.7814999,7.0818
	c0.1443996,0.0998402,0.2800007,0.2123299,0.4064007,0.3371501c0.1998997-0.5054202,0.3641987-1.0447302,0.4963989-1.5862699
	c0.2812004-1.1517801,0.3977013-2.2314403,0.4264011-2.8457901C18.1352005,2.46279,18.5799007,2.05779,19.1040001,2.0822899z
	 M16.1569004,9.2227802c-0.1442013-0.3003206-0.3155003-0.4810705-0.4558001-0.5780106
	C15.3092003,8.3739004,14.8785,8.5000496,14.6844997,8.7987099c-0.2080002,0.3202505-0.0979996,0.7461405,0.1974001,0.9429398
	C15.0014,9.8212099,15.1545,9.8615904,15.3577003,9.8048C15.5416002,9.7534199,15.823,9.6042004,16.1569004,9.2227802z"/>
<radialGradient id="SVGID_00000142892365709845584100000004178761282303259812_" cx="-472.6044006" cy="659.8869019" r="1" gradientTransform="matrix(-4.801054 6.0973287 3.7295921 2.9366913 -4712.0297852 949.3109741)" gradientUnits="userSpaceOnUse">
	<stop  offset="0.8020399" style="stop-color:#4274D2;stop-opacity:0"/>
	<stop  offset="0.950917" style="stop-color:#4274D2"/>
</radialGradient>
<path style="fill-rule:evenodd;clip-rule:evenodd;fill:url(#SVGID_00000142892365709845584100000004178761282303259812_);" d="
	M19.1040001,2.0822899c0.5240993,0.0245101,0.9291,0.46924,0.9046001,0.99334
	c-0.0337009,0.72158-0.1651001,1.92365-0.4785004,3.20766c-0.2619991,1.0732503-0.6653996,2.2636404-1.286499,3.2842102
	c0.1501999,0.7961998,0.1541996,1.7356997-0.0107002,2.8039999c-0.0799999,0.5185003-0.5652008,0.8739996-1.0838013,0.7939997
	c-0.5184994-0.0801001-0.8739986-0.5653-0.7939987-1.0837994c0.0368996-0.2391005,0.0630989-0.4629002,0.0798988-0.6724005
	c-0.1843987,0.0962-0.3731995,0.1716003-0.565999,0.2254c-0.7531004,0.2104006-1.4754,0.0646-2.0404005-0.3118
	c-1.0734997-0.7150002-1.5684004-2.2798195-0.7375002-3.5590897C13.8815002,6.5468402,15.5288,6.21596,16.7814999,7.0818
	c0.1443996,0.0998402,0.2800007,0.2123299,0.4064007,0.3371501c0.1998997-0.5054202,0.3641987-1.0447302,0.4963989-1.5862699
	c0.2812004-1.1517801,0.3977013-2.2314403,0.4264011-2.8457901C18.1352005,2.46279,18.5799007,2.05779,19.1040001,2.0822899z
	 M16.1569004,9.2227802c-0.1442013-0.3003206-0.3155003-0.4810705-0.4558001-0.5780106
	C15.3092003,8.3739004,14.8785,8.5000496,14.6844997,8.7987099c-0.2080002,0.3202505-0.0979996,0.7461405,0.1974001,0.9429398
	C15.0014,9.8212099,15.1545,9.8615904,15.3577003,9.8048C15.5416002,9.7534199,15.823,9.6042004,16.1569004,9.2227802z"/>
<radialGradient id="SVGID_00000170256228721050694800000018352453639743820985_" cx="29.6869869" cy="418.1822205" r="1" gradientTransform="matrix(1.09375 0.2343759 0.7868159 -3.6717944 -343.8122559 1533.1931152)" gradientUnits="userSpaceOnUse">
	<stop  offset="0" style="stop-color:#4D8EC0"/>
	<stop  offset="1" style="stop-color:#4D8EC0;stop-opacity:0"/>
</radialGradient>
<path style="fill-rule:evenodd;clip-rule:evenodd;fill:url(#SVGID_00000170256228721050694800000018352453639743820985_);" d="
	M19.1040001,2.0822899c0.5240993,0.0245101,0.9291,0.46924,0.9046001,0.99334
	c-0.0337009,0.72158-0.1651001,1.92365-0.4785004,3.20766c-0.2619991,1.0732503-0.6653996,2.2636404-1.286499,3.2842102
	c0.1501999,0.7961998,0.1541996,1.7356997-0.0107002,2.8039999c-0.0799999,0.5185003-0.5652008,0.8739996-1.0838013,0.7939997
	c-0.5184994-0.0801001-0.8739986-0.5653-0.7939987-1.0837994c0.0368996-0.2391005,0.0630989-0.4629002,0.0798988-0.6724005
	c-0.1843987,0.0962-0.3731995,0.1716003-0.565999,0.2254c-0.7531004,0.2104006-1.4754,0.0646-2.0404005-0.3118
	c-1.0734997-0.7150002-1.5684004-2.2798195-0.7375002-3.5590897C13.8815002,6.5468402,15.5288,6.21596,16.7814999,7.0818
	c0.1443996,0.0998402,0.2800007,0.2123299,0.4064007,0.3371501c0.1998997-0.5054202,0.3641987-1.0447302,0.4963989-1.5862699
	c0.2812004-1.1517801,0.3977013-2.2314403,0.4264011-2.8457901C18.1352005,2.46279,18.5799007,2.05779,19.1040001,2.0822899z
	 M16.1569004,9.2227802c-0.1442013-0.3003206-0.3155003-0.4810705-0.4558001-0.5780106
	C15.3092003,8.3739004,14.8785,8.5000496,14.6844997,8.7987099c-0.2080002,0.3202505-0.0979996,0.7461405,0.1974001,0.9429398
	C15.0014,9.8212099,15.1545,9.8615904,15.3577003,9.8048C15.5416002,9.7534199,15.823,9.6042004,16.1569004,9.2227802z"/>
<radialGradient id="SVGID_00000170972045984391128030000015954989711596289416_" cx="-543.3989868" cy="1067.8682861" r="1" gradientTransform="matrix(-1.0781265 0.8437498 0.7585884 0.969309 -1376.0162354 -574.3516235)" gradientUnits="userSpaceOnUse">
	<stop  offset="0" style="stop-color:#5ADEFF"/>
	<stop  offset="1" style="stop-color:#5ADEFF;stop-opacity:0"/>
</radialGradient>
<path style="fill-rule:evenodd;clip-rule:evenodd;fill:url(#SVGID_00000170972045984391128030000015954989711596289416_);" d="
	M19.1040001,2.0822899c0.5240993,0.0245101,0.9291,0.46924,0.9046001,0.99334
	c-0.0337009,0.72158-0.1651001,1.92365-0.4785004,3.20766c-0.2619991,1.0732503-0.6653996,2.2636404-1.286499,3.2842102
	c0.1501999,0.7961998,0.1541996,1.7356997-0.0107002,2.8039999c-0.0799999,0.5185003-0.5652008,0.8739996-1.0838013,0.7939997
	c-0.5184994-0.0801001-0.8739986-0.5653-0.7939987-1.0837994c0.0368996-0.2391005,0.0630989-0.4629002,0.0798988-0.6724005
	c-0.1843987,0.0962-0.3731995,0.1716003-0.565999,0.2254c-0.7531004,0.2104006-1.4754,0.0646-2.0404005-0.3118
	c-1.0734997-0.7150002-1.5684004-2.2798195-0.7375002-3.5590897C13.8815002,6.5468402,15.5288,6.21596,16.7814999,7.0818
	c0.1443996,0.0998402,0.2800007,0.2123299,0.4064007,0.3371501c0.1998997-0.5054202,0.3641987-1.0447302,0.4963989-1.5862699
	c0.2812004-1.1517801,0.3977013-2.2314403,0.4264011-2.8457901C18.1352005,2.46279,18.5799007,2.05779,19.1040001,2.0822899z
	 M16.1569004,9.2227802c-0.1442013-0.3003206-0.3155003-0.4810705-0.4558001-0.5780106
	C15.3092003,8.3739004,14.8785,8.5000496,14.6844997,8.7987099c-0.2080002,0.3202505-0.0979996,0.7461405,0.1974001,0.9429398
	C15.0014,9.8212099,15.1545,9.8615904,15.3577003,9.8048C15.5416002,9.7534199,15.823,9.6042004,16.1569004,9.2227802z"/>
<linearGradient id="SVGID_00000134956774067885808890000009638607714747923884_" gradientUnits="userSpaceOnUse" x1="14.0152493" y1="13.9651775" x2="27.4244499" y2="17.4792786" gradientTransform="matrix(1 0 0 -1 0 34)">
	<stop  offset="0" style="stop-color:#3797E2"/>
	<stop  offset="1" style="stop-color:#37AEFF"/>
</linearGradient>
<path style="fill-rule:evenodd;clip-rule:evenodd;fill:url(#SVGID_00000134956774067885808890000009638607714747923884_);" d="
	M13.8416004,22.6061993c-0.6842003-0.3782997-1.3974009-0.8365002-2.1148005-1.3654995
	c1.0864-1.3465004,3.0270004-3.1126995,5.5572004-4.3880997c4.1574001-2.0956001,8.7413998-0.9582005,10.6091995-0.217701
	c0.6417999,0.2544003,0.955801,0.9809017,0.7014008,1.6227016c-0.2544003,0.6416988-0.9808998,0.9556999-1.6226997,0.7012997
	c-1.6009007-0.6345997-5.3446007-1.4960003-8.5626011,0.1260986C16.2868004,20.1548996,14.7086,21.593399,13.8416004,22.6061993z"/>
<radialGradient id="SVGID_00000121978331451348936800000015636173085723164337_" cx="-568.2497559" cy="513.9277344" r="1" gradientTransform="matrix(-5.1121526 -6.1275291 -15.3599405 12.8146868 5008.3300781 -10043.9023438)" gradientUnits="userSpaceOnUse">
	<stop  offset="0.622552" style="stop-color:#526579;stop-opacity:0"/>
	<stop  offset="0.962126" style="stop-color:#526579"/>
</radialGradient>
<path style="fill-rule:evenodd;clip-rule:evenodd;fill:url(#SVGID_00000121978331451348936800000015636173085723164337_);" d="
	M13.8416004,22.6061993c-0.6842003-0.3782997-1.3974009-0.8365002-2.1148005-1.3654995
	c1.0864-1.3465004,3.0270004-3.1126995,5.5572004-4.3880997c4.1574001-2.0956001,8.7413998-0.9582005,10.6091995-0.217701
	c0.6417999,0.2544003,0.955801,0.9809017,0.7014008,1.6227016c-0.2544003,0.6416988-0.9808998,0.9556999-1.6226997,0.7012997
	c-1.6009007-0.6345997-5.3446007-1.4960003-8.5626011,0.1260986C16.2868004,20.1548996,14.7086,21.593399,13.8416004,22.6061993z"/>
<radialGradient id="SVGID_00000091015991084516052940000014303076473016651942_" cx="-320.7142944" cy="611.1717529" r="1" gradientTransform="matrix(-0.2100867 2.7311318 5.4909687 0.4223814 -3399.4104004 637.3461914)" gradientUnits="userSpaceOnUse">
	<stop  offset="0.396078" style="stop-color:#6972FF"/>
	<stop  offset="1" style="stop-color:#6972FF;stop-opacity:0"/>
</radialGradient>
<path style="fill-rule:evenodd;clip-rule:evenodd;fill:url(#SVGID_00000091015991084516052940000014303076473016651942_);" d="
	M13.8416004,22.6061993c-0.6842003-0.3782997-1.3974009-0.8365002-2.1148005-1.3654995
	c1.0864-1.3465004,3.0270004-3.1126995,5.5572004-4.3880997c4.1574001-2.0956001,8.7413998-0.9582005,10.6091995-0.217701
	c0.6417999,0.2544003,0.955801,0.9809017,0.7014008,1.6227016c-0.2544003,0.6416988-0.9808998,0.9556999-1.6226997,0.7012997
	c-1.6009007-0.6345997-5.3446007-1.4960003-8.5626011,0.1260986C16.2868004,20.1548996,14.7086,21.593399,13.8416004,22.6061993z"/>
<radialGradient id="SVGID_00000146488587400732071330000017162399748656440462_" cx="-850.2963867" cy="-538.0648804" r="1" gradientTransform="matrix(0.2713636 -0.7002913 -0.5522607 -0.2140015 -38.4587212 -693.3234253)" gradientUnits="userSpaceOnUse">
	<stop  offset="0" style="stop-color:#55BFFF"/>
	<stop  offset="1" style="stop-color:#55BFFF;stop-opacity:0"/>
</radialGradient>
<path style="fill-rule:evenodd;clip-rule:evenodd;fill:url(#SVGID_00000146488587400732071330000017162399748656440462_);" d="
	M13.8416004,22.6061993c-0.6842003-0.3782997-1.3974009-0.8365002-2.1148005-1.3654995
	c1.0864-1.3465004,3.0270004-3.1126995,5.5572004-4.3880997c4.1574001-2.0956001,8.7413998-0.9582005,10.6091995-0.217701
	c0.6417999,0.2544003,0.955801,0.9809017,0.7014008,1.6227016c-0.2544003,0.6416988-0.9808998,0.9556999-1.6226997,0.7012997
	c-1.6009007-0.6345997-5.3446007-1.4960003-8.5626011,0.1260986C16.2868004,20.1548996,14.7086,21.593399,13.8416004,22.6061993z"/>
<g>
	
		<radialGradient id="SVGID_00000052788124849726120790000004788575423284382080_" cx="-428.6489868" cy="719.810791" r="1" gradientTransform="matrix(-1.1970961 7.2131801 2.7023382 0.4484788 -2447.4624023 2775.5385742)" gradientUnits="userSpaceOnUse">
		<stop  offset="0" style="stop-color:#FF3AAA"/>
		<stop  offset="1" style="stop-color:#FD2F89"/>
	</radialGradient>
	<path style="fill-rule:evenodd;clip-rule:evenodd;fill:url(#SVGID_00000052788124849726120790000004788575423284382080_);" d="
		M10.1919003,6.6533499C9.8562698,6.0500998,9.0951204,5.83319,8.4918699,6.16887S7.67171,7.2657099,8.00739,7.8689599
		c0.5068998,0.9109502,1.1310396,2.1969399,1.2109203,3.8528399c0.0696096,1.4431-0.2702007,3.2733002-1.6517801,5.4687996
		c0.4780302,0.6326008,1.0552902,1.2883015,1.7156096,1.9393997c1.9478598-2.8334999,2.5373602-5.3712988,2.43326-7.5286989
		C11.6077995,9.37047,10.7631998,7.6799002,10.1919003,6.6533499z"/>
	
		<radialGradient id="SVGID_00000067935926326501283560000016914558445175234239_" cx="-345.0597534" cy="506.184082" r="1" gradientTransform="matrix(4.1140327 2.4891624 7.811708 -12.9110174 -2527.5490723 7408.237793)" gradientUnits="userSpaceOnUse">
		<stop  offset="0.8036979" style="stop-color:#DB2C6E;stop-opacity:0"/>
		<stop  offset="1" style="stop-color:#DB2C6E"/>
	</radialGradient>
	<path style="fill-rule:evenodd;clip-rule:evenodd;fill:url(#SVGID_00000067935926326501283560000016914558445175234239_);" d="
		M10.1919003,6.6533499C9.8562698,6.0500998,9.0951204,5.83319,8.4918699,6.16887S7.67171,7.2657099,8.00739,7.8689599
		c0.5068998,0.9109502,1.1310396,2.1969399,1.2109203,3.8528399c0.0696096,1.4431-0.2702007,3.2733002-1.6517801,5.4687996
		c0.4780302,0.6326008,1.0552902,1.2883015,1.7156096,1.9393997c1.9478598-2.8334999,2.5373602-5.3712988,2.43326-7.5286989
		C11.6077995,9.37047,10.7631998,7.6799002,10.1919003,6.6533499z"/>
</g>
<radialGradient id="SVGID_00000126319316772046002460000012194704456048956829_" cx="-723.0559692" cy="426.3076172" r="1" gradientTransform="matrix(-1.3371772 -2.3896575 -1.7862873 0.9995502 -188.9266357 -2144.4523926)" gradientUnits="userSpaceOnUse">
	<stop  offset="0" style="stop-color:#336BAF"/>
	<stop  offset="1" style="stop-color:#336BAF;stop-opacity:0"/>
</radialGradient>
<path style="fill:url(#SVGID_00000126319316772046002460000012194704456048956829_);" d="M12.8550997,8.2115002
	c0.0614004-0.1518202,0.1389999-0.30161,0.2339001-0.44768c0.7904005-1.21697,2.4377003-1.5478401,3.6904001-0.6820002
	c0.1443996,0.0998302,0.2800007,0.2123199,0.4064007,0.3371401C17.2266998,7.31569,17.2660007,7.21101,17.3038998,7.1051798
	C17.3057995,7.1115799,17.3076,7.1179399,17.3094006,7.12428c-0.2573013,0.8105402-0.8346996,1.6782303-1.1554012,2.0968304
	c-0.1441002-0.2993107-0.3149996-0.4795599-0.454999-0.5763206C15.3071003,8.37391,14.8764,8.5000696,14.6823997,8.7987204
	c-0.0075998,0.0116196-0.0146999,0.0233793-0.0213995,0.0352697L12.8550997,8.2115002z"/>
<radialGradient id="SVGID_00000101075961080647772060000017569235612743764383_" cx="-848.187561" cy="400.8464966" r="1" gradientTransform="matrix(-1.133348 -1.4686579 -0.5950348 0.4591821 -705.4647217 -1422.3059082)" gradientUnits="userSpaceOnUse">
	<stop  offset="0" style="stop-color:#49A4D4"/>
	<stop  offset="1" style="stop-color:#49A4D4;stop-opacity:0"/>
</radialGradient>
<path style="fill:url(#SVGID_00000101075961080647772060000017569235612743764383_);" d="M12.8550997,8.2115002
	c0.0614004-0.1518202,0.1389999-0.30161,0.2339001-0.44768c0.7904005-1.21697,2.4377003-1.5478401,3.6904001-0.6820002
	c0.1443996,0.0998302,0.2800007,0.2123199,0.4064007,0.3371401C17.2266998,7.31569,17.2660007,7.21101,17.3038998,7.1051798
	C17.3057995,7.1115799,17.3076,7.1179399,17.3094006,7.12428c-0.2573013,0.8105402-0.8346996,1.6782303-1.1554012,2.0968304
	c-0.1441002-0.2993107-0.3149996-0.4795599-0.454999-0.5763206C15.3071003,8.37391,14.8764,8.5000696,14.6823997,8.7987204
	c-0.0075998,0.0116196-0.0146999,0.0233793-0.0213995,0.0352697L12.8550997,8.2115002z"/>
<g>
	<path class="st36" d="M18.2416,9.5683603c0.1501007,0.7960396,0.1539993,1.73524-0.0107994,2.8031397
		c-0.0799999,0.5185003-0.5652008,0.8739996-1.0838013,0.7938995c-0.5184994-0.0799999-0.8739986-0.5651999-0.7939987-1.0836992
		c0.0368996-0.2386007,0.0629997-0.4621,0.0797997-0.6712008C17.4148006,10.7939997,18.0631008,9.9736404,18.2416,9.5683603z"/>
</g>
<radialGradient id="SVGID_00000032615846103239186160000011790432900149124268_" cx="-312.7759399" cy="879.5732422" r="1" gradientTransform="matrix(-0.2187481 2.5781264 1.4348445 0.1217433 -1312.326416 708.7781372)" gradientUnits="userSpaceOnUse">
	<stop  offset="0" style="stop-color:#4AB5F8"/>
	<stop  offset="1" style="stop-color:#4AB5F8;stop-opacity:0"/>
</radialGradient>
<path style="fill:url(#SVGID_00000032615846103239186160000011790432900149124268_);" d="M18.2416,9.5683603
	c0.1501007,0.7960396,0.1539993,1.73524-0.0107994,2.8031397c-0.0799999,0.5185003-0.5652008,0.8739996-1.0838013,0.7938995
	c-0.5184994-0.0799999-0.8739986-0.5651999-0.7939987-1.0836992c0.0368996-0.2386007,0.0629997-0.4621,0.0797997-0.6712008
	C17.4148006,10.7939997,18.0631008,9.9736404,18.2416,9.5683603z"/>
<g>
	
		<linearGradient id="SVGID_00000099663177858863091840000009781322276009050034_" gradientUnits="userSpaceOnUse" x1="13.7233467" y1="25.2934875" x2="16.5045471" y2="25.9750271" gradientTransform="matrix(1 0 0 -1 0 34)">
		<stop  offset="0" style="stop-color:#4EAFF2"/>
		<stop  offset="1" style="stop-color:#4EAFF2;stop-opacity:0"/>
	</linearGradient>
	
		<path style="fill:none;stroke:url(#SVGID_00000099663177858863091840000009781322276009050034_);stroke-width:0.3;stroke-linecap:round;" d="
		M16.5496998,8.1718597c-0.2656002-0.3593597-1.1171999-0.9999995-2.1875-0.3359599
		c-0.3590994,0.2227597-0.5703001,1.0625205-0.4062996,1.6328301"/>
</g>
<g>
	
		<linearGradient id="SVGID_00000022529682316350267840000007413395286188868019_" gradientUnits="userSpaceOnUse" x1="20.209734" y1="31.6315479" x2="16.3035336" y2="22.6315689" gradientTransform="matrix(1 0 0 -1 0 34)">
		<stop  offset="0" style="stop-color:#5BDDFF"/>
		<stop  offset="1" style="stop-color:#5BDDFF;stop-opacity:0"/>
	</linearGradient>
	
		<path style="fill:none;stroke:url(#SVGID_00000022529682316350267840000007413395286188868019_);stroke-width:0.3;stroke-linecap:round;" d="
		M19.4715996,3.01562c-0.0833988,1.5104201-0.7374992,5.0750093-2.6875,7.24998"/>
</g>
</svg>
