<?xml version="1.0" encoding="utf-8"?>
<!-- Generator: Adobe Illustrator 27.0.0, SVG Export Plug-In . SVG Version: 6.00 Build 0)  -->
<svg version="1.1" id="Layer_1" xmlns="http://www.w3.org/2000/svg" xmlns:xlink="http://www.w3.org/1999/xlink" x="0px" y="0px"
	 viewBox="0 0 32 32" style="enable-background:new 0 0 32 32;" xml:space="preserve">
<style type="text/css">
	.st0{fill:#FFFFFF;}
	.st1{fill-rule:evenodd;clip-rule:evenodd;fill:#BD3D44;}
	.st2{fill-rule:evenodd;clip-rule:evenodd;fill:#192F5D;}
	.st3{fill-rule:evenodd;clip-rule:evenodd;fill:#FFFFFF;}
	.st4{fill:url(#SVGID_1_);fill-opacity:0.25;}
	.st5{fill:url(#SVGID_00000158733956941079492480000009136935886610827446_);fill-opacity:0.5;}
	.st6{fill:url(#SVGID_00000017509095289829104050000003263616937923516326_);fill-opacity:0.5;}
	.st7{fill:url(#SVGID_00000046298681417331094410000009360269029833720475_);}
</style>
<path class="st0" d="M30.2000122,6.5999756v18.7000122c0,0.2999878-0.2999878,0.6000366-0.6000366,0.6000366H2.9000244
	c-0.3000488,0-0.6000366-0.3000488-0.6000366-0.6000366V6.5999756C2.2999878,6.2999878,2.5,6,2.9000244,6h26.6999512
	C29.9000244,6,30.2000122,6.2999878,30.2000122,6.5999756z"/>
<path class="st1" d="M2.2999878,24.3699951v0.9299927c0,0.2999878,0.2999878,0.6000366,0.6000366,0.6000366h26.6999512
	c0.3000488,0,0.6000366-0.3000488,0.6000366-0.6000366v-0.9299927H2.2999878z M2.2999878,21.3099976v1.5300293h27.9000244
	v-1.5300293H2.2999878z M2.2999878,18.25v1.5300293h27.9000244V18.25H2.2999878z M2.2999878,15.1799927v1.539978h27.9000244
	v-1.539978H2.2999878z M2.2999878,12.1199951v1.539978h27.9000244v-1.539978H2.2999878z M2.2999878,9.0599976v1.539978h27.9000244
	v-1.539978H2.2999878z M29.5999756,6H2.9000244C2.5,6,2.2999878,6.2999878,2.2999878,6.5999756v0.9300537h27.9000244V6.5999756
	C30.2000122,6.2999878,29.9000244,6,29.5999756,6z"/>
<path class="st2" d="M15.9000244,6v10.7199707H2.2999878V6.5999756C2.2999878,6.2999878,2.5,6,2.9000244,6H15.9000244z"/>
<path class="st3" d="M15.289978,15.460022h-0.3999634l-0.0800171-0.2800293l-0.039978-0.1499634l-0.0500488,0.1499634
	l-0.0799561,0.2700195h-0.4000244l0.3300171,0.2600098l-0.1300049,0.4299927l0.3300171-0.2600098l0.3200073,0.2600098
	l-0.1300049-0.4200439L15.289978,15.460022z M13.0200195,15.460022h-0.4000244l-0.0800171-0.2800293L12.5,15.0300293
	l-0.039978,0.1499634l-0.0800171,0.2700195h-0.4000244l0.3200073,0.2600098l-0.1199951,0.4299927L12.5,15.8800049
	l0.3200073,0.2600098l-0.1199951-0.4200439L13.0200195,15.460022z M10.7600098,15.460022h-0.4000244l-0.0799561-0.2800293
	l-0.0500488-0.1499634l-0.039978,0.1499634l-0.0800171,0.2700195H9.710022l0.3299561,0.2600098l-0.1300049,0.4299927
	l0.3200073-0.2600098l0.3300171,0.2600098l-0.1300049-0.4200439L10.7600098,15.460022z M8.4899902,15.460022H8.0900269
	l-0.0800171-0.2800293l-0.0400391-0.1499634l-0.039978,0.1499634l-0.0800171,0.2700195H7.4500122l0.3200073,0.2600098
	l-0.1199951,0.4299927l0.3199463-0.2600098l0.3300171,0.2600098l-0.1199951-0.4200439L8.4899902,15.460022z M6.2299805,15.460022
	H5.8200073l-0.0800171-0.2800293l-0.039978-0.1499634l-0.0499878,0.1499634l-0.0800171,0.2700195H5.1799927L5.5,15.710022
	l-0.1199951,0.4299927l0.3200073-0.2600098l0.3200073,0.2600098l-0.1199951-0.4200439L6.2299805,15.460022z M3.960022,15.460022
	H3.5599976l-0.0800171-0.2800293l-0.0499878-0.1499634l-0.039978,0.1499634l-0.0800171,0.2700195H2.9099731l0.3200073,0.2600098
	l-0.1199951,0.4299927l0.3200073-0.2600098l0.3300171,0.2600098l-0.1300049-0.4200439L3.960022,15.460022z M14.1599731,14.3800049
	h-0.3999634l-0.1300049-0.4199829l-0.1199951,0.4199829h-0.4000244l0.3200073,0.2600098l-0.1199951,0.4299927l0.3200073-0.2600098
	l0.3300171,0.2600098l-0.1300049-0.4299927L14.1599731,14.3800049z M11.8900146,14.3800049h-0.4000244l-0.1199951-0.4199829
	L11.25,14.3800049h-0.4099731l0.3299561,0.2600098l-0.1199951,0.4299927l0.3200073-0.2600098l0.3200073,0.2600098
	l-0.1199951-0.4299927L11.8900146,14.3800049z M9.6300049,14.3800049H9.2199707L9.0999756,13.960022l-0.1300049,0.4199829H8.5800171
	l0.3200073,0.2600098l-0.1199951,0.4299927l0.3199463-0.2600098l0.3200073,0.2600098l-0.1199951-0.4299927L9.6300049,14.3800049z
	 M7.3599854,14.3800049H6.960022L6.8300171,13.960022L6.710022,14.3800049H6.3099976l0.3200073,0.2600098l-0.1199951,0.4299927
	l0.3200073-0.2600098l0.3299561,0.2600098l-0.1299438-0.4299927L7.3599854,14.3800049z M5.0999756,14.3800049H4.6900024
	L4.5700073,13.960022l-0.1199951,0.4199829H4.0499878l0.3200073,0.2600098L4.25,15.0700073l0.3200073-0.2600098l0.3200073,0.2600098
	l-0.1199951-0.4299927L5.0999756,14.3800049z M14.960022,13.5700073l0.3299561-0.2600098h-0.3999634l-0.1199951-0.4199829
	l-0.1300049,0.4199829h-0.4000244l0.3300171,0.2600098l-0.0300293,0.0899658l-0.0999756,0.3300171l0.3300171-0.25l0.3200073,0.25
	l-0.1000366-0.3300171L14.960022,13.5700073z M12.7000122,13.5700073l0.3200073-0.2600098h-0.4000244L12.5,12.8900146
	l-0.1199951,0.4199829h-0.4000244l0.3200073,0.2600098l-0.0299683,0.0899658l-0.0900269,0.3300171l0.3200073-0.25l0.3200073,0.25
	l-0.0900269-0.3300171L12.7000122,13.5700073z M10.4299927,13.5700073l0.3300171-0.2600098h-0.4000244l-0.1300049-0.4199829
	l-0.1199951,0.4199829H9.710022l0.3299561,0.2600098l-0.0299683,0.0899658l-0.1000366,0.3300171l0.3200073-0.25l0.3300171,0.25
	l-0.0999756-0.3300171L10.4299927,13.5700073z M8.1699829,13.5700073l0.3200073-0.2600098H8.0900269l-0.1200562-0.4199829
	l-0.1299438,0.4199829H7.4400024l0.3300171,0.2600098l-0.0300293,0.0899658l-0.0999756,0.3300171l0.3299561-0.25l0.3200073,0.25
	l-0.0899658-0.3300171L8.1699829,13.5700073z M5.9000244,13.5700073l0.3299561-0.2600098H5.8200073l-0.1199951-0.4199829
	l-0.1300049,0.4199829H5.1799927L5.5,13.5700073l-0.0300293,0.0899658l-0.0899658,0.3300171l0.3200073-0.25l0.3200073,0.25
	l-0.0900269-0.3300171L5.9000244,13.5700073z M3.6300049,13.5700073l0.3300171-0.2600098H3.5599976l-0.1300049-0.4199829
	l-0.1199951,0.4199829H2.9099731l0.3200073,0.2600098l-0.0299683,0.0899658l-0.0900269,0.3300171l0.3200073-0.25l0.3300171,0.25
	l-0.1000366-0.3300171L3.6300049,13.5700073z M14.1599731,12.2399902h-0.3999634l-0.0400391-0.1199951l-0.0899658-0.2999878
	l-0.0900269,0.2999878l-0.0299683,0.1199951h-0.4000244L13.4299927,12.5l-0.1199951,0.4299927l0.3200073-0.2700195
	l0.3300171,0.2700195L13.8300171,12.5L14.1599731,12.2399902z M11.8900146,12.2399902h-0.4000244l-0.0299683-0.1199951
	l-0.0900269-0.2999878l-0.0899658,0.2999878L11.25,12.2399902h-0.4099731L11.1699829,12.5l-0.1199951,0.4299927l0.3200073-0.2700195
	l0.3200073,0.2700195L11.5700073,12.5L11.8900146,12.2399902z M9.6300049,12.2399902H9.2199707l-0.0299683-0.1199951
	l-0.0900269-0.2999878l-0.0899658,0.2999878l-0.0400391,0.1199951H8.5800171L8.9000244,12.5l-0.1199951,0.4299927
	l0.3199463-0.2700195l0.3200073,0.2700195L9.2999878,12.5L9.6300049,12.2399902z M7.3599854,12.2399902H6.960022
	l-0.0400391-0.1199951l-0.0899658-0.2999878l-0.0900269,0.2999878L6.710022,12.2399902H6.3099976L6.6300049,12.5
	l-0.1199951,0.4299927l0.3200073-0.2700195l0.3299561,0.2700195L7.0300293,12.5L7.3599854,12.2399902z M5.0999756,12.2399902
	H4.6900024l-0.0300293-0.1199951l-0.0899658-0.2999878l-0.0900269,0.2999878l-0.0299683,0.1199951H4.0499878L4.3699951,12.5
	L4.25,12.9299927l0.3200073-0.2700195l0.3200073,0.2700195L4.7700195,12.5L5.0999756,12.2399902z M15.289978,11.1699829h-0.3999634
	L14.7700195,10.75l-0.1300049,0.4199829h-0.4000244l0.3300171,0.2600098l-0.1300049,0.4199829l0.3300171-0.2599487
	l0.3200073,0.2699585l-0.1300049-0.4299927L15.289978,11.1699829z M13.0200195,11.1699829h-0.4000244L12.5,10.75
	l-0.1199951,0.4199829h-0.4000244l0.3200073,0.2600098l-0.1199951,0.4199829L12.5,11.5900269l0.3200073,0.2699585
	l-0.1199951-0.4299927L13.0200195,11.1699829z M10.7600098,11.1699829h-0.4000244L10.2299805,10.75l-0.1199951,0.4199829H9.710022
	l0.3299561,0.2600098l-0.1300049,0.4199829l0.3200073-0.2599487l0.3300171,0.2699585l-0.1300049-0.4299927L10.7600098,11.1699829z
	 M8.4899902,11.1699829H8.0900269L7.9699707,10.75l-0.1299438,0.4199829H7.4400024l0.3300171,0.2600098l-0.1300049,0.4199829
	l0.3299561-0.2599487l0.3200073,0.2699585l-0.1199951-0.4299927L8.4899902,11.1699829z M6.2299805,11.1699829H5.8200073
	L5.7000122,10.75l-0.1300049,0.4199829H5.1799927L5.5,11.4299927l-0.1199951,0.4199829l0.3200073-0.2599487l0.3200073,0.2599487
	l-0.1199951-0.4199829L6.2299805,11.1699829z M3.960022,11.1699829H3.5599976L3.4299927,10.75l-0.1199951,0.4199829H2.9099731
	l0.3200073,0.2600098l-0.1199951,0.4199829l0.3200073-0.2599487l0.3300171,0.2699585l-0.1300049-0.4299927L3.960022,11.1699829z
	 M13.8300171,10.3599854l0.3299561-0.2600098h-0.3999634l-0.1300049-0.4299927l-0.1199951,0.4299927h-0.4000244l0.3200073,0.2600098
	l-0.0700073,0.2399902l-0.0499878,0.1800537l0.2200317-0.1800537l0.0999756-0.0799561l0.0999756,0.0799561l0.2300415,0.1800537
	l-0.0599976-0.1800537L13.8300171,10.3599854z M11.5700073,10.3599854l0.3200073-0.2600098h-0.4000244l-0.1199951-0.4299927
	L11.25,10.0999756h-0.4099731l0.3299561,0.2600098l-0.0700073,0.2399902l-0.0499878,0.1800537l0.2200317-0.1800537
	l0.0999756-0.0799561l0.0999756,0.0799561l0.2200317,0.1800537l-0.0499878-0.1800537L11.5700073,10.3599854z M9.2999878,10.3599854
	l0.3300171-0.2600098H9.2199707L9.0999756,9.6699829l-0.1300049,0.4299927H8.5800171l0.3200073,0.2600098l-0.0700073,0.2399902
	l-0.0499878,0.1800537L9,10.5999756l0.0999756-0.0799561l0.1000366,0.0799561l0.2199707,0.1800537l-0.0499878-0.1800537
	L9.2999878,10.3599854z M7.0300293,10.3599854l0.3299561-0.2600098H6.960022L6.8300171,9.6699829L6.710022,10.0999756H6.3099976
	l0.3200073,0.2600098l-0.0700073,0.2399902l-0.0499878,0.1800537l0.2199707-0.1800537l0.1000366-0.0799561l0.0999756,0.0799561
	l0.2299805,0.1800537l-0.0599976-0.1800537L7.0300293,10.3599854z M4.7700195,10.3599854l0.3299561-0.2600098H4.6900024
	L4.5700073,9.6699829l-0.1199951,0.4299927H4.0499878l0.3200073,0.2600098l-0.0700073,0.2399902L4.25,10.7800293
	l0.2199707-0.1800537l0.1000366-0.0799561l0.0999756,0.0799561l0.2200317,0.1800537l-0.0499878-0.1800537L4.7700195,10.3599854z
	 M15.289978,9.0200195h-0.3999634l-0.1199951-0.4200439l-0.1300049,0.4200439h-0.4000244l0.0499878,0.039978l0.2800293,0.2200317
	L14.4400024,9.710022l0.3300171-0.2600098l0.3200073,0.2600098L14.960022,9.2800293l0.2799683-0.2200317L15.289978,9.0200195z
	 M13.0200195,9.0200195h-0.4000244L12.5,8.5999756l-0.1199951,0.4200439h-0.4000244l0.0500488,0.039978l0.2699585,0.2200317
	L12.1799927,9.710022L12.5,9.4500122l0.3200073,0.2600098l-0.1199951-0.4299927l0.2699585-0.2200317L13.0200195,9.0200195z
	 M10.7600098,9.0200195h-0.4000244l-0.1300049-0.4200439l-0.1199951,0.4200439H9.710022l0.0499878,0.039978l0.2799683,0.2200317
	L9.9099731,9.710022l0.3200073-0.2600098l0.3300171,0.2600098l-0.1300049-0.4299927l0.2800293-0.2200317L10.7600098,9.0200195z
	 M8.4899902,9.0200195H8.0900269L7.9699707,8.5999756L7.8400269,9.0200195H7.4400024l0.0499878,0.039978l0.2800293,0.2200317
	L7.6400146,9.710022l0.3299561-0.2600098L8.289978,9.710022L8.1699829,9.2800293l0.2700195-0.2200317L8.4899902,9.0200195z
	 M6.2299805,9.0300293H5.8200073L5.7000122,8.5999756L5.5700073,9.0200195H5.1799927l0.0499878,0.039978L5.5,9.2800293
	L5.3800049,9.710022l0.3200073-0.2600098L6.0200195,9.710022L5.9000244,9.289978l0.289978-0.2299805L6.2299805,9.0300293z
	 M3.960022,9.0300293H3.5599976L3.4299927,8.5999756L3.3099976,9.0300293H2.9099731l0.0400391,0.0299683L3.2299805,9.289978
	L3.1099854,9.710022l0.3200073-0.2600098L3.7600098,9.710022L3.6300049,9.289978l0.289978-0.2299805L3.960022,9.0300293z
	 M14.1599731,7.960022h-0.3999634l-0.1300049-0.4299927L13.5100098,7.960022h-0.4000244l0.3200073,0.25l-0.1199951,0.4299927
	l0.3200073-0.2600098l0.3300171,0.2600098L13.8300171,8.210022L14.1599731,7.960022z M11.8900146,7.960022h-0.4000244
	l-0.1199951-0.4299927L11.25,7.960022h-0.4099731l0.3299561,0.25l-0.1199951,0.4299927l0.3200073-0.2600098l0.3200073,0.2600098
	L11.5599976,8.210022L11.8900146,7.960022z M9.6300049,7.960022H9.2199707L9.0999756,7.5300293L8.9699707,7.960022H8.5800171
	l0.3200073,0.25L8.7800293,8.6400146l0.3199463-0.2600098l0.3200073,0.2600098L9.2999878,8.210022L9.6300049,7.960022z
	 M7.3599854,7.960022H6.960022L6.8300171,7.5300293L6.710022,7.960022H6.3099976l0.3200073,0.25L6.5100098,8.6400146
	l0.3200073-0.2600098l0.3299561,0.2600098L7.0300293,8.210022L7.3599854,7.960022z M5.0999756,7.960022H4.6900024
	L4.5700073,7.5300293L4.4500122,7.960022H4.0499878l0.3200073,0.25L4.25,8.6400146l0.3200073-0.2600098l0.3200073,0.2600098
	L4.7700195,8.210022L5.0999756,7.960022z M14.960022,7.1400146l0.3299561-0.2600098h-0.3999634L14.7700195,6.460022
	l-0.1300049,0.4199829h-0.4000244l0.3300171,0.2600098l-0.1199951,0.3900146l-0.0100098,0.039978l0.0499878-0.039978
	l0.2800293-0.2200317l0.2699585,0.2200317l0.0500488,0.039978l-0.0100098-0.039978L14.960022,7.1400146z M12.7000122,7.1400146
	l0.3200073-0.2600098h-0.4000244L12.5,6.460022l-0.1199951,0.4199829h-0.4000244l0.3200073,0.2600098l-0.1099854,0.3900146
	l-0.0100098,0.039978l0.0499878-0.039978L12.5,7.3099976l0.2700195,0.2200317l0.0499878,0.039978l-0.0100098-0.039978
	L12.7000122,7.1400146z M10.4299927,7.1400146l0.3300171-0.2600098h-0.4000244L10.2299805,6.460022l-0.1199951,0.4199829H9.710022
	l0.3299561,0.2600098L9.9199829,7.5300293l-0.0100098,0.039978l0.0500488-0.039978l0.2699585-0.2200317l0.2800293,0.2200317
	l0.0499878,0.039978l-0.0100098-0.039978L10.4299927,7.1400146z M8.1699829,7.1400146l0.3200073-0.2600098H8.0900269
	L7.9699707,6.460022L7.8400269,6.8800049H7.4400024l0.3300171,0.2600098L7.6500244,7.5300293l-0.0100098,0.039978
	l0.0499878-0.039978l0.2799683-0.2200317l0.2700195,0.2200317l0.0499878,0.039978l-0.0099487-0.039978L8.1699829,7.1400146z
	 M5.9000244,7.1400146l0.3299561-0.2600098H5.8200073L5.7000122,6.460022L5.5700073,6.8800049H5.1799927L5.5,7.1400146
	L5.3900146,7.5300293l-0.0100098,0.039978l0.0499878-0.039978l0.2700195-0.2200317l0.2699585,0.2200317l0.0500488,0.039978
	l-0.0100098-0.039978L5.9000244,7.1400146z M3.6300049,7.1400146L3.960022,6.8800049H3.5599976L3.4299927,6.460022
	L3.3099976,6.8800049H2.9099731l0.3200073,0.2600098L3.1199951,7.5300293l-0.0100098,0.039978l0.0499878-0.039978
	l0.2700195-0.2200317L3.710022,7.5300293l0.0499878,0.039978L3.75,7.5300293L3.6300049,7.1400146z"/>
<linearGradient id="SVGID_1_" gradientUnits="userSpaceOnUse" x1="2.2521999" y1="2329.9499512" x2="3.221" y2="2329.9499512" gradientTransform="matrix(1 0 0 1 0 -2314)">
	<stop  offset="0" style="stop-color:#3A3A3A"/>
	<stop  offset="1" style="stop-color:#3A3A3A;stop-opacity:0"/>
</linearGradient>
<path class="st4" d="M2.9000001,6h26.7000008c0.2999992,0,0.6000004,0.3000002,0.6000004,0.5999999v18.7000008
	c0,0.2999992-0.2999992,0.6000004-0.6000004,0.6000004H2.9000001c-0.3,0-0.5999999-0.2999992-0.5999999-0.6000004V6.5999999
	C2.3,6.3000002,2.5,6,2.9000001,6z"/>
<linearGradient id="SVGID_00000170249378865887897620000007632216119984415398_" gradientUnits="userSpaceOnUse" x1="30.1271992" y1="2329.9499512" x2="29.1585007" y2="2329.9499512" gradientTransform="matrix(1 0 0 1 0 -2314)">
	<stop  offset="0" style="stop-color:#FBF2FF"/>
	<stop  offset="1" style="stop-color:#FBF2FF;stop-opacity:0"/>
</linearGradient>
<path style="fill:url(#SVGID_00000170249378865887897620000007632216119984415398_);fill-opacity:0.5;" d="M2.9000001,6h26.7000008
	c0.2999992,0,0.6000004,0.3000002,0.6000004,0.5999999v18.7000008c0,0.2999992-0.2999992,0.6000004-0.6000004,0.6000004H2.9000001
	c-0.3,0-0.5999999-0.2999992-0.5999999-0.6000004V6.5999999C2.3,6.3000002,2.5,6,2.9000001,6z"/>
<linearGradient id="SVGID_00000047770150286714214130000010788782176404808086_" gradientUnits="userSpaceOnUse" x1="16.25" y1="2320.0429688" x2="16.25" y2="2320.7539062" gradientTransform="matrix(1 0 0 1 0 -2314)">
	<stop  offset="0" style="stop-color:#FBF2FF"/>
	<stop  offset="1" style="stop-color:#FBF2FF;stop-opacity:0"/>
</linearGradient>
<path style="fill:url(#SVGID_00000047770150286714214130000010788782176404808086_);fill-opacity:0.5;" d="M2.9000001,6h26.7000008
	c0.2999992,0,0.6000004,0.3000002,0.6000004,0.5999999v18.7000008c0,0.2999992-0.2999992,0.6000004-0.6000004,0.6000004H2.9000001
	c-0.3,0-0.5999999-0.2999992-0.5999999-0.6000004V6.5999999C2.3,6.3000002,2.5,6,2.9000001,6z"/>
<linearGradient id="SVGID_00000109000621707665154670000014722510581879363484_" gradientUnits="userSpaceOnUse" x1="16.25" y1="2340.28125" x2="16.25" y2="2339.40625" gradientTransform="matrix(1 0 0 1 0 -2314)">
	<stop  offset="0.0149313" style="stop-color:#48484A"/>
	<stop  offset="1" style="stop-color:#7F888B;stop-opacity:0"/>
</linearGradient>
<path style="fill:url(#SVGID_00000109000621707665154670000014722510581879363484_);" d="M2.9000001,6h26.7000008
	c0.2999992,0,0.6000004,0.3000002,0.6000004,0.5999999v18.7000008c0,0.2999992-0.2999992,0.6000004-0.6000004,0.6000004H2.9000001
	c-0.3,0-0.5999999-0.2999992-0.5999999-0.6000004V6.5999999C2.3,6.3000002,2.5,6,2.9000001,6z"/>
</svg>
