<svg xmlns="http://www.w3.org/2000/svg" width="17.442" height="17" viewBox="0 0 17.442 17">
  <defs>
    <linearGradient id="linear-gradient" x1="20.5" y1="10.5" x2="-0.5" y2="10.5" gradientUnits="userSpaceOnUse">
      <stop offset="0" stop-color="#aa1578"/>
      <stop offset="1" stop-color="#b31c6e"/>
    </linearGradient>
  </defs>
  <path id="back_icon" fill="url(#linear-gradient)" class="cls-1" d="M7.416,3.786l.864-.864a.93.93,0,0,1,1.32,0l7.568,7.564a.93.93,0,0,1,0,1.32L9.6,19.373a.93.93,0,0,1-1.32,0l-.864-.864a.935.935,0,0,1,.016-1.335L12.122,12.7H.934A.932.932,0,0,1,0,11.77V10.524A.932.932,0,0,1,.934,9.59H12.122L7.431,5.121A.929.929,0,0,1,7.416,3.786Z" transform="translate(17.442 19.647) rotate(180)"/>
</svg>
