<svg xmlns="http://www.w3.org/2000/svg" width="20.124" height="23" viewBox="0 0 20.124 23">
  <defs>
    <linearGradient id="linear-gradient" x1="20.5" y1="10.5" x2="-0.5" y2="10.5" gradientUnits="userSpaceOnUse">
      <stop offset="0" stop-color="#aa1578"/>
      <stop offset="1" stop-color="#b31c6e"/>
    </linearGradient>
  </defs>
  <path id="delete_icon" fill="url(#linear-gradient)" class="cls-1" d="M-9380.269,32.943h-12.938a2.159,2.159,0,0,1-2.157-2.154V15.693h17.253V30.788A2.159,2.159,0,0,1-9380.269,32.943Zm-2.158-14.374a.718.718,0,0,0-.718.718V29.349a.72.72,0,0,0,.718.721.722.722,0,0,0,.722-.721V19.287A.721.721,0,0,0-9382.427,18.569Zm-4.312,0a.719.719,0,0,0-.718.718V29.349a.72.72,0,0,0,.718.721.721.721,0,0,0,.719-.721V19.287A.719.719,0,0,0-9386.738,18.569Zm-4.311,0a.72.72,0,0,0-.722.718V29.349a.722.722,0,0,0,.722.721.72.72,0,0,0,.718-.721V19.287A.719.719,0,0,0-9391.049,18.569Zm13.655-4.314h-18.688a.718.718,0,0,1-.718-.718V12.1a.72.72,0,0,1,.718-.721h5.392l.421-.84a1.074,1.074,0,0,1,.955-.6h5.142a1.072,1.072,0,0,1,.966.6l.422.84h5.392a.72.72,0,0,1,.718.721v1.436A.718.718,0,0,1-9377.394,14.254Z" transform="translate(9396.8 -9.943)"/>
</svg>
