<svg xmlns="http://www.w3.org/2000/svg" width="23" height="23.001" viewBox="0 0 23 23.001">
  <defs>
    <linearGradient id="linear-gradient" x1="20.5" y1="10.5" x2="-0.5" y2="10.5" gradientUnits="userSpaceOnUse">
      <stop offset="0" stop-color="#aa1578"/>
      <stop offset="1" stop-color="#b31c6e"/>
    </linearGradient>
  </defs>
  <path id="help_icon" fill="url(#linear-gradient)" class="cls-1" d="M-5106.976-1415.9a11.483,11.483,0,0,1-3.656-2.464,11.463,11.463,0,0,1-2.463-3.655,11.418,11.418,0,0,1-.9-4.477,11.419,11.419,0,0,1,.9-4.477,11.463,11.463,0,0,1,2.463-3.655,11.443,11.443,0,0,1,3.656-2.464,11.436,11.436,0,0,1,4.476-.9,11.435,11.435,0,0,1,4.477.9,11.439,11.439,0,0,1,3.655,2.464,11.459,11.459,0,0,1,2.464,3.655,11.419,11.419,0,0,1,.9,4.477,11.418,11.418,0,0,1-.9,4.477,11.459,11.459,0,0,1-2.464,3.655,11.479,11.479,0,0,1-3.655,2.464,11.434,11.434,0,0,1-4.477.9A11.435,11.435,0,0,1-5106.976-1415.9Zm-4.934-10.6a9.42,9.42,0,0,0,9.409,9.409,9.42,9.42,0,0,0,9.41-9.409,9.42,9.42,0,0,0-9.41-9.409A9.419,9.419,0,0,0-5111.91-1426.5Zm8.259,5.229a1.15,1.15,0,0,1,1.15-1.15,1.15,1.15,0,0,1,1.15,1.15,1.15,1.15,0,0,1-1.15,1.15A1.15,1.15,0,0,1-5103.65-1421.271Zm.074-3.853a1.046,1.046,0,0,1,.662-1.322c.626-.213,2.421-1.064,2.421-2.145a2.085,2.085,0,0,0-1.737-2.066,2.089,2.089,0,0,0-2.327,1.367,1.043,1.043,0,0,1-1.332.639,1.043,1.043,0,0,1-.639-1.332,4.169,4.169,0,0,1,4.651-2.734,4.171,4.171,0,0,1,3.476,4.128,3.866,3.866,0,0,1-2.034,3.22,8.482,8.482,0,0,1-1.817.906,1.027,1.027,0,0,1-.331.054A1.048,1.048,0,0,1-5103.576-1425.124Z" transform="translate(5114 1438.001)"/>
</svg>
