<svg xmlns="http://www.w3.org/2000/svg" width="23" height="22.999" viewBox="0 0 23 22.999">
  <defs>
    <linearGradient id="linear-gradient" x1="20.5" y1="10.5" x2="-0.5" y2="10.5" gradientUnits="userSpaceOnUse">
      <stop offset="0" stop-color="#aa1578"/>
      <stop offset="1" stop-color="#b31c6e"/>
    </linearGradient>
  </defs>
  <path id="info_icon" fill="url(#linear-gradient)" class="cls-1" d="M-5106.976-1355.9a11.483,11.483,0,0,1-3.656-2.464,11.463,11.463,0,0,1-2.463-3.655,11.418,11.418,0,0,1-.9-4.477,11.419,11.419,0,0,1,.9-4.477,11.463,11.463,0,0,1,2.463-3.655,11.443,11.443,0,0,1,3.656-2.464,11.435,11.435,0,0,1,4.476-.9,11.434,11.434,0,0,1,4.477.9,11.439,11.439,0,0,1,3.655,2.464,11.459,11.459,0,0,1,2.464,3.655,11.419,11.419,0,0,1,.9,4.477,11.418,11.418,0,0,1-.9,4.477,11.459,11.459,0,0,1-2.464,3.655,11.479,11.479,0,0,1-3.655,2.464,11.434,11.434,0,0,1-4.477.9A11.435,11.435,0,0,1-5106.976-1355.9Zm-4.934-10.6a9.42,9.42,0,0,0,9.409,9.409,9.42,9.42,0,0,0,9.41-9.409,9.42,9.42,0,0,0-9.41-9.409A9.42,9.42,0,0,0-5111.91-1366.5Zm8.364,4.181v-4.181a1.046,1.046,0,0,1,1.045-1.046,1.046,1.046,0,0,1,1.046,1.046v4.181a1.046,1.046,0,0,1-1.046,1.046A1.046,1.046,0,0,1-5103.545-1362.319Zm-.1-8.363a1.15,1.15,0,0,1,1.15-1.15,1.15,1.15,0,0,1,1.15,1.15,1.151,1.151,0,0,1-1.15,1.15A1.151,1.151,0,0,1-5103.65-1370.682Z" transform="translate(5114 1378)"/>
</svg>
