<svg xmlns="http://www.w3.org/2000/svg" width="23" height="23" viewBox="0 0 23 23">
  <defs>
    <linearGradient id="linear-gradient" x1="20.5" y1="10.5" x2="-0.5" y2="10.5" gradientUnits="userSpaceOnUse">
      <stop offset="0" stop-color="#aa1578"/>
      <stop offset="1" stop-color="#b31c6e"/>
    </linearGradient>
  </defs>
  <path id="log_out_icon" fill="url(#linear-gradient)" class="cls-1" d="M-6944.05-1202a1.15,1.15,0,0,1-1.15-1.15,1.151,1.151,0,0,1,1.15-1.15h4.6a1.152,1.152,0,0,0,1.15-1.15v-16.1a1.152,1.152,0,0,0-1.15-1.15h-4.6a1.15,1.15,0,0,1-1.15-1.149,1.15,1.15,0,0,1,1.15-1.15h4.6a3.453,3.453,0,0,1,3.449,3.449v16.1a3.453,3.453,0,0,1-3.449,3.451Zm-8.863-4.937-5.75-5.75c-.021-.021-.042-.043-.061-.066l-.019-.021h0c-.007-.007-.012-.015-.019-.021h0l-.016-.021s0,0,0,0l-.016-.021h0c0-.008-.01-.015-.015-.023h0a.153.153,0,0,0-.015-.024,1.153,1.153,0,0,1-.172-.553v0c0-.008,0-.016,0-.024v-.056h0c0-.009,0-.019,0-.028v-.007a.157.157,0,0,0,0-.021.024.024,0,0,0,0-.011c0-.005,0-.011,0-.017s0-.008,0-.013a.043.043,0,0,0,0-.014.089.089,0,0,0,0-.016s0-.008,0-.012a.062.062,0,0,0,0-.017s0-.007,0-.009a.081.081,0,0,1,0-.019s0-.005,0-.008l0-.02a.016.016,0,0,0,0-.008.071.071,0,0,0,.005-.019s0-.005,0-.008a.129.129,0,0,0,.006-.019s0-.005,0-.008,0-.012.006-.019l0-.009a.112.112,0,0,1,.006-.017.036.036,0,0,1,0-.011s0-.009.005-.015l0-.012s0-.009.005-.013a.089.089,0,0,1,.005-.015.047.047,0,0,0,0-.011l.007-.016a.016.016,0,0,0,0-.008.093.093,0,0,0,.009-.02s0,0,0,0,.007-.015.009-.023a0,0,0,0,0,0,0l.012-.023h0a1.113,1.113,0,0,1,.211-.289l5.75-5.75a1.15,1.15,0,0,1,1.625,0,1.149,1.149,0,0,1,0,1.627l-3.787,3.787h11.024a1.149,1.149,0,0,1,1.15,1.15,1.149,1.149,0,0,1-1.15,1.149h-11.025l3.788,3.788a1.147,1.147,0,0,1,0,1.625,1.142,1.142,0,0,1-.812.338A1.145,1.145,0,0,1-6952.913-1206.937Z" transform="translate(6959 1224.999)"/>
</svg>
