<svg xmlns="http://www.w3.org/2000/svg" width="17.524" height="23" viewBox="0 0 17.524 23">
  <defs>
    <linearGradient id="linear-gradient" x1="20.5" y1="10.5" x2="-0.5" y2="10.5" gradientUnits="userSpaceOnUse">
      <stop offset="0" stop-color="#aa1578"/>
      <stop offset="1" stop-color="#b31c6e"/>
    </linearGradient>
  </defs>
  <path id="password_icon" fill="url(#linear-gradient)" class="cls-1" d="M14.762,19.024a2.19,2.19,0,1,0-2.19-2.19A2.2,2.2,0,0,0,14.762,19.024Zm6.571-9.857h-1.1V6.976a5.476,5.476,0,1,0-10.952,0v2.19H8.19A2.2,2.2,0,0,0,6,11.357V22.31A2.2,2.2,0,0,0,8.19,24.5H21.333a2.2,2.2,0,0,0,2.19-2.19V11.357A2.2,2.2,0,0,0,21.333,9.167Zm-9.967-2.19a3.4,3.4,0,1,1,6.79,0v2.19h-6.79ZM21.333,22.31H8.19V11.357H21.333Z" transform="translate(-6 -1.5)"/>
</svg>
