<svg xmlns="http://www.w3.org/2000/svg" width="70" height="70" viewBox="0 0 76 76">
  <defs>
    <linearGradient id="linear-gradient" x1="0" y1="0" x2="70" y2="70" gradientUnits="userSpaceOnUse">
      <stop offset="0" stop-color="#aa1578"/>
      <stop offset="1" stop-color="#c22466"/>
    </linearGradient>
  </defs>
  <path id="profile_icon_round" d="M38,3A35,35,0,1,0,73,38,35.013,35.013,0,0,0,38,3Zm0,10.5A10.5,10.5,0,1,1,27.5,24,10.486,10.486,0,0,1,38,13.5Zm0,49.7A25.2,25.2,0,0,1,17,51.93c.1-6.965,14-10.78,21-10.78,6.965,0,20.895,3.815,21,10.78A25.2,25.2,0,0,1,38,63.2Z" fill="url(#linear-gradient)" />
</svg>
