<svg xmlns="http://www.w3.org/2000/svg" width="20.699" height="22.999" viewBox="0 0 20.699 22.999">
  <defs>
    <linearGradient id="linear-gradient" x1="20.5" y1="10.5" x2="-0.5" y2="10.5" gradientUnits="userSpaceOnUse">
      <stop offset="0" stop-color="#aa1578"/>
      <stop offset="1" stop-color="#b31c6e"/>
    </linearGradient>
  </defs>
  <path id="profile_icon" fill="url(#linear-gradient)" d="M-5095.6-1232.151v-2.3a3.455,3.455,0,0,0-3.451-3.45h-9.2a3.422,3.422,0,0,0-2.438,1.01,3.429,3.429,0,0,0-1.011,2.44v2.3a1.15,1.15,0,0,1-1.15,1.15,1.15,1.15,0,0,1-1.15-1.15v-2.3a5.711,5.711,0,0,1,1.684-4.066,5.713,5.713,0,0,1,4.066-1.684h9.2a5.756,5.756,0,0,1,5.75,5.75v2.3a1.15,1.15,0,0,1-1.15,1.15A1.149,1.149,0,0,1-5095.6-1232.151Zm-13.8-16.1a5.756,5.756,0,0,1,5.75-5.75,5.756,5.756,0,0,1,5.751,5.75,5.757,5.757,0,0,1-5.751,5.75A5.757,5.757,0,0,1-5109.4-1248.25Zm2.3,0a3.454,3.454,0,0,0,3.45,3.45,3.453,3.453,0,0,0,3.45-3.45,3.453,3.453,0,0,0-3.45-3.45A3.454,3.454,0,0,0-5107.1-1248.25Z" transform="translate(5114 1254)"/>
</svg>
