<svg xmlns="http://www.w3.org/2000/svg" xmlns:xlink="http://www.w3.org/1999/xlink" width="80" height="79.999" viewBox="0 0 80 79.999">
  <defs>
    <linearGradient id="linear-gradient" x1="1" y1="0.5" x2="0" y2="0.5" gradientUnits="objectBoundingBox">
      <stop offset="0" stop-color="#c22466"/>
      <stop offset="1" stop-color="#aa1578"/>
    </linearGradient>
  </defs>
  <path id="scan_button" fill="url(#linear-gradient)" class="cls-1" d="M-4443,31.127a40,40,0,0,1,40-40,40,40,0,0,1,40,40,40,40,0,0,1-40,40A40,40,0,0,1-4443,31.127Zm26.243-32.574A35.243,35.243,0,0,0-4428,6.131a35.267,35.267,0,0,0-7.577,11.237,35.12,35.12,0,0,0-2.775,13.759,35.119,35.119,0,0,0,2.775,13.757A35.267,35.267,0,0,0-4428,56.121a35.243,35.243,0,0,0,11.239,7.578A35.118,35.118,0,0,0-4403,66.475a35.118,35.118,0,0,0,13.757-2.775A35.243,35.243,0,0,0-4378,56.121a35.267,35.267,0,0,0,7.577-11.237,35.128,35.128,0,0,0,2.776-13.757,35.13,35.13,0,0,0-2.776-13.759A35.267,35.267,0,0,0-4378,6.131a35.243,35.243,0,0,0-11.239-7.578A35.118,35.118,0,0,0-4403-4.223,35.118,35.118,0,0,0-4416.757-1.447ZM-4435.5,31.127a32.5,32.5,0,0,1,32.5-32.5,32.5,32.5,0,0,1,32.5,32.5,32.5,32.5,0,0,1-32.5,32.5A32.5,32.5,0,0,1-4435.5,31.127Z" transform="translate(4443 8.874)"/>
</svg>
