<svg xmlns="http://www.w3.org/2000/svg" xmlns:xlink="http://www.w3.org/1999/xlink" width="17" height="17.003" viewBox="0 0 17 17.003">
  <defs>
    <style>
      .cls-1 {
        fill: url(#linear-gradient);
      }
    </style>
    <linearGradient id="linear-gradient" x1="1" y1="0.5" x2="0" y2="0.5" gradientUnits="objectBoundingBox">
      <stop offset="0" stop-color="#c22466"/>
      <stop offset="1" stop-color="#aa1578"/>
    </linearGradient>
  </defs>
  <path id="search_icon" class="cls-1" d="M16.769,14.7,13.458,11.39a.8.8,0,0,0-.564-.232h-.541a6.9,6.9,0,1,0-1.2,1.2v.541a.8.8,0,0,0,.232.564L14.7,16.769a.794.794,0,0,0,1.126,0l.94-.94A.8.8,0,0,0,16.769,14.7ZM6.907,11.157a4.25,4.25,0,1,1,4.25-4.25A4.248,4.248,0,0,1,6.907,11.157Z"/>
</svg>
