<svg xmlns="http://www.w3.org/2000/svg" width="22.999" height="23.001" viewBox="0 0 22.999 23.001">
  <defs>
    <linearGradient id="linear-gradient" x1="20.5" y1="10.5" x2="-0.5" y2="10.5" gradientUnits="userSpaceOnUse">
      <stop offset="0" stop-color="#aa1578"/>
      <stop offset="1" stop-color="#b31c6e"/>
    </linearGradient>
  </defs>
  <path id="settings_icon" fill="url(#linear-gradient)" class="cls-1" d="M-5105.3-1293.875v-.073a.619.619,0,0,0-.408-.561l-.055-.023a.628.628,0,0,0-.251-.053.617.617,0,0,0-.433.175l-.053.053a2.859,2.859,0,0,1-2.034.843,2.858,2.858,0,0,1-2.034-.843,2.857,2.857,0,0,1-.842-2.033,2.855,2.855,0,0,1,.843-2.034l.053-.053a.623.623,0,0,0,.122-.684s0-.006-.005-.01a.623.623,0,0,0-.568-.377h-.161a2.878,2.878,0,0,1-2.875-2.875,2.878,2.878,0,0,1,2.875-2.875h.073a.619.619,0,0,0,.561-.407.449.449,0,0,1,.023-.057.62.62,0,0,0-.122-.684l-.052-.053a2.853,2.853,0,0,1-.843-2.034,2.855,2.855,0,0,1,.843-2.034,2.852,2.852,0,0,1,2.033-.842,2.852,2.852,0,0,1,2.034.843l.053.053a.619.619,0,0,0,.433.175.626.626,0,0,0,.251-.053,1,1,0,0,1,.191-.062.625.625,0,0,0,.272-.512v-.159A2.879,2.879,0,0,1-5102.5-1314a2.879,2.879,0,0,1,2.875,2.876v.083a.622.622,0,0,0,.378.569l.009,0a.6.6,0,0,0,.25.053.619.619,0,0,0,.434-.175l.053-.053a2.859,2.859,0,0,1,2.033-.843,2.859,2.859,0,0,1,2.034.843,2.859,2.859,0,0,1,.843,2.034,2.858,2.858,0,0,1-.843,2.033l-.053.053a.62.62,0,0,0-.122.684.986.986,0,0,1,.062.191.619.619,0,0,0,.511.272h.16A2.878,2.878,0,0,1-5091-1302.5a2.878,2.878,0,0,1-2.875,2.875h-.083a.621.621,0,0,0-.569.377l0,.009a.62.62,0,0,0,.122.684l.053.053a2.857,2.857,0,0,1,.842,2.034,2.855,2.855,0,0,1-.843,2.034,2.852,2.852,0,0,1-2.033.842,2.851,2.851,0,0,1-2.033-.843l-.053-.053a.619.619,0,0,0-.434-.175.621.621,0,0,0-.25.053l-.01,0a.626.626,0,0,0-.377.57v.161a2.878,2.878,0,0,1-2.875,2.875A2.878,2.878,0,0,1-5105.3-1293.875Zm.282-2.423a2.527,2.527,0,0,1,1.634,2.314v.109a.96.96,0,0,0,.959.957.959.959,0,0,0,.958-.957v-.167a2.54,2.54,0,0,1,1.534-2.323,2.542,2.542,0,0,1,1.021-.213,2.525,2.525,0,0,1,1.776.724l.007.008.058.057a.948.948,0,0,0,.678.282.956.956,0,0,0,.679-.281.954.954,0,0,0,.281-.679.947.947,0,0,0-.281-.678l-.058-.058-.008-.008a2.527,2.527,0,0,1-.51-2.8,2.537,2.537,0,0,1,2.322-1.535h.09a.96.96,0,0,0,.959-.957.96.96,0,0,0-.959-.959h-.166a2.537,2.537,0,0,1-2.324-1.539.914.914,0,0,1-.069-.253,2.523,2.523,0,0,1,.582-2.616l.006-.008.058-.058a.947.947,0,0,0,.281-.678.948.948,0,0,0-.281-.679.948.948,0,0,0-.679-.281.949.949,0,0,0-.678.281l-.058.058-.008.008a2.53,2.53,0,0,1-1.776.724,2.511,2.511,0,0,1-1.019-.214,2.537,2.537,0,0,1-1.535-2.322v-.09a.959.959,0,0,0-.958-.959.959.959,0,0,0-.958.959v.166a2.537,2.537,0,0,1-1.54,2.324.963.963,0,0,1-.253.069,2.515,2.515,0,0,1-.839.144,2.528,2.528,0,0,1-1.776-.725l-.006-.008-.058-.057a.951.951,0,0,0-.679-.282.954.954,0,0,0-.678.281.955.955,0,0,0-.282.679.951.951,0,0,0,.281.678l.058.059.008.006a2.526,2.526,0,0,1,.52,2.774,2.521,2.521,0,0,1-2.312,1.634h-.109a.96.96,0,0,0-.958.957.96.96,0,0,0,.958.959h.167a2.535,2.535,0,0,1,2.322,1.535,2.523,2.523,0,0,1-.509,2.8l-.008.008-.058.058a.956.956,0,0,0-.281.679.955.955,0,0,0,.281.678.952.952,0,0,0,.679.281.949.949,0,0,0,.678-.281l.058-.058.008-.006a2.528,2.528,0,0,1,1.776-.725A2.533,2.533,0,0,1-5105.016-1296.3Zm-1.317-6.2a3.837,3.837,0,0,1,3.833-3.834,3.838,3.838,0,0,1,3.833,3.834,3.838,3.838,0,0,1-3.833,3.832A3.837,3.837,0,0,1-5106.333-1302.5Zm1.917,0a1.919,1.919,0,0,0,1.916,1.916,1.919,1.919,0,0,0,1.917-1.916,1.919,1.919,0,0,0-1.917-1.917A1.919,1.919,0,0,0-5104.417-1302.5Z" transform="translate(5114 1314.001)"/>
</svg>